/* XPM */
static char *f7a7066b035d45a8c9cff3bee127aacdEcmRJywKmKBrpaP8[] = {
/* columns rows colors chars-per-pixel */
"32 32 9 1 ",
"  c #2F2F2E",
". c #3B3B39",
"X c #4F4F4E",
"o c #9D5021",
"O c #D67941",
"+ c #109400",
"@ c #8CD600",
"# c gray72",
"$ c white",
/* pixels */
"@+@+@+@+@+@+@+@+@+@+@+@+@+@+@+@+",
"+@+@+@+@+@+@+@+@+@+@+@+@+@+@+@+@",
"@+@+@+@+@+@+@+@+@+@+@+@+@+@+@+@+",
"+@+@+@+@+@+@+@+@+@+@+@+@+@+@+@+@",
"@+@+@+@+@+@+@+@+@+@+@+@+@+@+@+@+",
"+@+@+@+@+@+@+@+@+@+@+@+@+@+@+@+@",
"@+@+@+@+@+@+@+@+@+@+@+@+@+@+@+@+",
"+@+@+@+@+@+@+@+@+@+@+@+@+@+@+@+@",
"@+@+@+@+@+@+@+@+@  +@+@+@+@+@+@+",
"+@+@+@+@+@+@+@+@ o @+   +@+@+@+@",
"@+@+@+@+@+@+@+@ o$ + oO @+@+@+@+",
"+@+@+  @+@+@+@+ o$     @+@+@+@+@",
"@+@+@ #   @+@+@ ooOOOO +@+@+@+@+",
"+@+@+ #$$O @+@+ ooO ooo +@+@+@+@",
"@+@+@+ #oOO @+ oooOOOO   +@+@+@+",
"+@+@+@+ oOOO @ ##$$$$$$$ @+@+@+@",
"@+@+@+@ ooOO     ##$$$  @+@+@+@+",
"+@+@+@+@ oo ooooo     +@+@+@+@+@",
"@+@+@+@+@  ooooOOOO$$ @+@+@+@+@+",
"+@+@+@+@+@ oooOOOo##  +@+@+@+@+@",
"@+@+@+@+@+ o    O   o @+@+@+@+@+",
"+@+@+@+@+@ . .  X + X +@+@+@+@+@",
"@+@+@+@+@+  @ @+  @+  @+@+@+@+@+",
"+@+@+@+@+@+@+@+@+@+@+@+@+@+@+@+@",
"@+@+@+@+@+@+@+@+@+@+@+@+@+@+@+@+",
"+@+@+@+@+@+@+@+@+@+@+@+@+@+@+@+@",
"@+@+@+@+@+@+@+@+@+@+@+@+@+@+@+@+",
"+@+@+@+@+@+@+@+@+@+@+@+@+@+@+@+@",
"@+@+@+@+@+@+@+@+@+@+@+@+@+@+@+@+",
"+@+@+@+@+@+@+@+@+@+@+@+@+@+@+@+@",
"@+@+@+@+@+@+@+@+@+@+@+@+@+@+@+@+",
"+@+@+@+@+@+@+@+@+@+@+@+@+@+@+@+@"
};
