/* XPM */
static char *_778ef1a2dea4e08c7117e38b732c014Vjmn6lCBK27SFVKF[] = {
/* columns rows colors chars-per-pixel */
"32 32 3 1 ",
"  c #8CD600",
". c #109400",
"X c white",
/* pixels */
" . . . . . . . . . . . . . . . .",
". . . . . . . . . . . . . . . . ",
" . . . . . . . . . . . . . . . .",
". . . . . . . . . . . . . . . . ",
" . . . . . . . . . . . . . . . .",
". . . . . . . . . . . . . . . . ",
" . . . . . . . . . . . . . . . .",
". . . . . . . . . . . . . . . . ",
" . . . . . . . . . . . . . . . .",
". . . . . . . . . . . . . . . . ",
" . . . . . . . . . . . . . . . .",
". . . . . . . . . . . . . . . . ",
" . . . . . . . . . . . . . . . .",
". . . . . . . . . . . . . . . . ",
" . . . . . . . . . . . . . . . .",
". . . . . . . . . . . . . . . . ",
" . . . . . . . . . . . . . . . .",
". . . . . . . . . . . . . . . . ",
" . . . . . . . . . . . . . . . .",
". . . . . . . . . . . . . . . . ",
" . . . . . . . . . . . . . . . .",
". . . . . . . . . . . . . . . . ",
" . . . . . . . . . . . . . . . .",
". . . . . . . . . . . . . . . . ",
" . . . . . . . . . . . . . . . .",
". . . . . . . . . . . . . . . . ",
" . . . . . . . . . . . . . . . .",
". . . . . . . . . . . . . . . . ",
" . . . . . . . . . . . . . . . .",
". . . . . . . . . . . . . . . . ",
" . . . . . . . . . . . . . . . .",
". . . . . . . . . . . . . . . . "
};
