/* XPM */
static char * obj_xpm[] = {
"32 32 32 1",
" 	c #8CD600",
".	c #109400",
"+	c #7E1227",
"@	c #9E1A22",
"#	c #27700A",
"$	c #30600A",
"%	c #2B7A18",
"&	c #2E7517",
"*	c #2F6A10",
"=	c #2BB448",
"-	c #289F2A",
";	c #2A8A24",
">	c #46B82B",
",	c #2BA93B",
"'	c #1D4C13",
")	c #28830E",
"!	c #2A8924",
"~	c #2E7011",
"{	c #2C720C",
"]	c #2C7F19",
"^	c #2B8A0E",
"/	c #206F3C",
"(	c #A02925",
"_	c #FD3F42",
":	c #D80E3A",
"<	c #EA1F3C",
"[	c #A40D25",
"}	c #FE928C",
"|	c #FEBEBB",
"1	c #FFEAE9",
"2	c #FD6D65",
"3	c #8A1625",
" . . . . . . . . . . . . . . . .",
". . . . . . . . . . ++@@. . . . ",
" . . . . . . . . . ##$$# . . . .",
". . . . . . . . +++##%&*. . . . ",
" . . . . . . .++ . #=-;*#. . . .",
". . . . . . .@. . .#>>,;&&# . . ",
" . . . . . .@. . . #>>>-&&;& . .",
". . . . . .@. . . .+$#>>-;;&# . ",
" . . . . . @ . . . +'#>>=)!~{. .",
". . . . . @ . . . .+'#>>>=-,;#. ",
" . . . . + . . . . @ .#>>=>>]# .",
". . . . .+. . . . .@. .)^>>>>>/ ",
" . . .@@++(( . . . @ . ##>>>>>#.",
". .@@@_:@(__@+. . .@. . .###### ",
" .(____:::__<:+. ++++++@ . . . .",
". (____<:<__<:[@@::@@:::@@@ . . ",
" @_}|1}2____<@____::::<::::@ . .",
".@_}||}_____<@____::::<::::@. . ",
" @__}}______:@__}}2____<:::@ . .",
".@__________@_}|1}2____<<:::@ . ",
" @_________<@_}||}_____<<:::@. .",
".@________<<@__}}______<<:::@ . ",
" @_______<<:@__________<<:::@. .",
". [<____<<::@__________<::::@ . ",
" .@<___<<:::@__________<::::@. .",
". @:<<<<::::@_________<:::::@ . ",
" . @@@::::::@_______<<::::::@. .",
". . . @333++.@::<<<<:::::::@. . ",
" . . . . . . .@:::::::::::@. . .",
". . . . . . . .@:::::::::@. . . ",
" . . . . . . . .@@@@@@@@@. . . .",
". . . . . . . . . . . . . . . . "};
