/* XPM */
static char * player_xpm[] = {
"32 32 24 1",
" 	c #8CD600",
".	c #109400",
"+	c #0C0A07",
"@	c #4C342F",
"#	c #634A45",
"$	c #D2A394",
"%	c #E4B5A5",
"&	c #553D39",
"*	c #B56A68",
"=	c #291A18",
"-	c #3A2B28",
";	c #6E7D61",
">	c #C0AC98",
",	c #4C403D",
"'	c #DBCBBC",
")	c #87947C",
"!	c #425059",
"~	c #57636B",
"{	c #362623",
"]	c #554C3C",
"^	c #0F7D02",
"/	c #76B502",
"(	c #0E6904",
"_	c #639904",
" . . . . . . . . . . . . . . . .",
". . . . . . . . . . . . . . . . ",
" . . . . . . . . . . . . . . . .",
". . . . . . . . . . . . . . . . ",
" . . . . . . . . . . . . . . . .",
". . . . . . . ++. + . . . . . . ",
" . . . . . +++@@++@+ . . . . . .",
". . . . . +@@@##@@#@+ . . . . . ",
" . . . . . +#########+ . . . . .",
". . . . . +##########@+ . . . . ",
" . . . . .+###@@#@###@@+ . . . .",
". . . . .+@@##$@#$####+ . . . . ",
" . . . . .+@#$$$#$$###+. . . . .",
". . . . . +##$+%$%+$@##+. . . . ",
" . . . . +&#*$=%%%=$*&+. . . . .",
". . . . . +&&$%%%%%$&&+ . . . . ",
" . . . . . +&&$%%%$&&+ . . . . .",
". . . . . . +&+$$$+&+ . . . . . ",
" . . . . . +-;->>>-;-+ . . . . .",
". . . . . .+-;,''>,;-+. . . . . ",
" . . . . .+--),''',)--+. . . . .",
". . . . . +,-;,>'',;-,+ . . . . ",
" . . . . +,,+-,'>',-+,,+ . . . .",
". . . . .+%$+--!!!--+$%+. . . . ",
" . . . . .+++!~~~~~!+++. . . . .",
". . . . . . +!~~!~~!+ . . . . . ",
" . . . . . .+!~!+!~!+. . . . . .",
". . . . . . +!!+.+!!+ . . . . . ",
" . . . . . .+{{+ +{{+. . . . . .",
". . . . . .+]]{+.+{]]+. . . . . ",
" . . . . ^/(_(_(_(_(_(/^ . . . .",
". . . . . ^/^/^/^/^/^/^ . . . . "};
