/* XPM */
static char *_271c27f3dd642a4ab9c7f6b2eedd5e6vuZdGZbgrkIroGnu[] = {
/* columns rows colors chars-per-pixel */
"32 32 7 1 ",
"  c #E5968A",
". c #FFCEC6",
"X c #9C4A00",
"o c #CC6A14",
"O c gray20",
"+ c black",
"@ c white",
/* pixels */
" ................. X .......... ",
".                  oOo         .",
"   ..............ooO+Ooo....oOO ",
". ..XoXoXoXoXoXoX.oO+Oo.XoXo.oOO",
". .XoXoXoXoXoXoXoX.O+O.XoXoXX.+O",
". .oXoXoXoXoXXXXXXoO+O.oXXXXXo++",
". .XoXoXoXXXXXXXXXoO+O.XoXXXXo++",
". .oXoXXXXXXXXXXXXoO+O.oXXXXXo++",
". .XoXoXXXXXXXXXXXoO+O.XoXXXXo++",
". .oXoXXXXXXXXXXXXXoO+O.XoXXXo++",
". .XoXXXXXXXXXXXXXXoO+O.oXoXoo++",
". .oXXXXXXXXXXXXXXXoO+O.ooOooo++",
". .XoXXXXXXXXXXXXXXoO+OoOO+OOoO+",
". .oXXXXXXXXXXXXXXXoO+OO++O++OOO",
"X .XoXXXXXXXXXXXXXXoO+O+OO.OO++O",
"OX.oXXXXXXXXXXXXXXXXoO+O..o..OO+",
"+O..oXXXXXXXXXXXXXXXoO+O.oXoX.OO",
"O+OO.XXXXXXXXXXXXXXXoO+O.XoXoo+O",
"XO++O.XXXXXXXXXXXXXooO+O.oXoXo++",
" XOO+OooXXXXXXXXXXoOO+O.oXoXXo++",
". ..O+OOoXXXXXXXXoO++O.oXoXXXo++",
". .o.O++OooooooooO+OO.oXoXoXXo++",
". .Xo.OO+OOOOOOOO+O..oXoXoXXXo++",
". .oXo..O+++++++++O.oXoXoXXXXo++",
". .XoXoX.OOOOOOO+O.oXoXoXXXXXo++",
". .oXoXoX......O+O.XoXoXXXXXXo++",
". .XoXXXXXXXXXXoO+O.XoXXXXXXXo++",
". .oXXXXXXXXXXXoO+O.oXXXXXXXXo++",
". ..XXXXXXXXXXoooO+O.oXXXXXXoo+O",
"O  .oooooooooooooO+O.ooooooooOOO",
"+OOOOOOOOOOOOOOOO+++OOOOOOOOOOO+",
"O++++++++++++++++++++++++++++++O"
};
